Coordinates
version=1
nRows=8
nColumns=40
inDegrees=yes

Units are S.I. units (second, meters, Newtons, ...)
If the header above contains a line with 'inDegrees', this indicates whether rotational values are in degrees (yes) or radians (no).

endheader
time	pelvis_tilt	pelvis_list	pelvis_rotation	pelvis_tx	pelvis_ty	pelvis_tz	hip_flexion_r	hip_adduction_r	hip_rotation_r	knee_angle_r	knee_angle_r_beta	ankle_angle_r	subtalar_angle_r	mtp_angle_r	hip_flexion_l	hip_adduction_l	hip_rotation_l	knee_angle_l	knee_angle_l_beta	ankle_angle_l	subtalar_angle_l	mtp_angle_l	lumbar_extension	lumbar_bending	lumbar_rotation	arm_flex_r	arm_add_r	arm_rot_r	elbow_flex_r	pro_sup_r	wrist_flex_r	wrist_dev_r	arm_flex_l	arm_add_l	arm_rot_l	elbow_flex_l	pro_sup_l	wrist_flex_l	wrist_dev_l
     18.24500000	     36.02389881	    -10.85865705	    176.25909106	      0.33470718	      0.85119117	     -0.57963546	     73.52863748	    -10.83729048	      3.10828783	     42.01582027	      0.73331440	      5.16722204	      0.00000000	      0.00000000	     68.05243613	     -2.21813731	    -13.81659065	     41.07451439	      0.71688551	      9.03908501	      0.00000000	      0.00000000	    -25.71936633	     -7.22130041	     -3.24778021	     45.70361872	    -14.36155721	     41.39016694	     10.30995888	      5.56737031	      0.00000000	      0.00000000	     52.25984043	    -16.13332599	     45.63360972	     14.80511936	     87.47567631	      0.00000000	      0.00000000
     18.25000000	     35.96748657	    -10.79055518	    176.28905857	      0.33454336	      0.85321853	     -0.57981755	     73.02278759	    -10.80466775	      3.03895413	     41.25749723	      0.72007917	      4.91910332	      0.00000000	      0.00000000	     67.48081300	     -2.06320321	    -13.72891078	     40.04081850	      0.69884412	      8.75653037	      0.00000000	      0.00000000	    -25.55780927	     -7.21566866	     -3.17163474	     45.38791479	    -14.48113224	     41.40438982	     10.54317466	      5.59370523	      0.00000000	      0.00000000	     52.03841851	    -16.19442424	     45.55466480	     15.03689694	     87.45684478	      0.00000000	      0.00000000
     18.25500000	     35.70697993	    -10.75789904	    176.34882902	      0.33411749	      0.85516669	     -0.57988167	     72.39264252	    -10.87744509	      3.01052506	     40.69366567	      0.71023845	      4.66382671	      0.00000000	      0.00000000	     66.84796587	     -1.83825499	    -13.57218423	     39.34162600	      0.68664091	      8.47091861	      0.00000000	      0.00000000	    -25.57453691	     -7.22348524	     -3.22323121	     45.17781870	    -14.52302110	     41.42480213	     10.66379236	      5.59738566	      0.00000000	      0.00000000	     51.83711694	    -16.24292913	     45.44417299	     15.09791904	     87.43871479	      0.00000000	      0.00000000
     18.26000000	     35.58782926	    -10.71265595	    176.37736655	      0.33369901	      0.85603430	     -0.58019779	     72.18244596	    -10.88627185	      2.99575666	     40.67162242	      0.70985372	      4.63225425	      0.00000000	      0.00000000	     66.65278462	     -1.81900269	    -13.56049934	     39.29826709	      0.68588415	      8.42670211	      0.00000000	      0.00000000	    -25.31127661	     -7.26350373	     -3.17570645	     44.85720415	    -14.46828251	     41.42845709	     10.59334579	      5.58779828	      0.00000000	      0.00000000	     51.58210225	    -16.24887639	     45.45828393	     15.05184912	     87.44731822	      0.00000000	      0.00000000
     18.26500000	     35.40857412	    -10.62916096	    176.32694090	      0.33322082	      0.85751809	     -0.58062283	     71.72599031	    -10.85152497	      2.77639380	     40.29045938	      0.70320117	      4.55387393	      0.00000000	      0.00000000	     66.19994218	     -1.83113538	    -13.53718589	     38.82416982	      0.67760959	      8.26689887	      0.00000000	      0.00000000	    -25.17642865	     -7.28353771	     -3.06199338	     44.57310463	    -14.45827198	     41.42947186	     10.63603957	      5.59260310	      0.00000000	      0.00000000	     51.33839730	    -16.29966276	     45.37918018	     15.15297170	     87.44545786	      0.00000000	      0.00000000
     18.27000000	     35.27236673	    -10.59349957	    176.33168789	      0.33277625	      0.85830937	     -0.58084211	     71.50375561	    -10.85284594	      2.78580156	     40.25706024	      0.70261825	      4.50668572	      0.00000000	      0.00000000	     66.00991263	     -1.80349988	    -13.47563824	     38.80405907	      0.67725859	      8.21766031	      0.00000000	      0.00000000	    -24.90982411	     -7.33467203	     -3.02942121	     44.28386471	    -14.42062353	     41.43081456	     10.56996305	      5.58479572	      0.00000000	      0.00000000	     51.07586355	    -16.32244717	     45.40066154	     15.08319927	     87.45262040	      0.00000000	      0.00000000
     18.27500000	     34.59403799	    -10.35459450	    176.17742034	      0.33181303	      0.86100636	     -0.58145913	     70.30574727	    -10.74474987	      2.44486488	     39.58402504	      0.69087157	      4.32095037	      0.00000000	      0.00000000	     64.97649803	     -1.86032781	    -13.28911844	     38.26828972	      0.66790765	      8.04132339	      0.00000000	      0.00000000	    -25.40211965	     -7.22883291	     -2.88696272	     44.18324436	    -14.41250433	     41.78663094	     10.55027482	      5.60991930	      0.00000000	      0.00000000	     51.04782674	    -16.27446219	     45.43876826	     15.00282342	     87.43796264	      0.00000000	      0.00000000
     18.28000000	     34.47467257	    -10.33184462	    176.17463635	      0.33126969	      0.86166699	     -0.58176285	     70.10363323	    -10.75442360	      2.40159988	     39.55583494	      0.69037956	      4.29557683	      0.00000000	      0.00000000	     64.79085916	     -1.84607517	    -13.25331103	     38.24077617	      0.66742745	      8.00816640	      0.00000000	      0.00000000	    -25.09039254	     -7.29122829	     -2.83027123	     43.83521994	    -14.34507337	     41.80735259	     10.46894788	      5.60095507	      0.00000000	      0.00000000	     50.74663340	    -16.28386280	     45.48018447	     14.93863404	     87.44999835	      0.00000000	      0.00000000
